<?xml version="1.0" encoding="UTF-8" standalone="no"?>
<svg
   version="1.1"
   viewBox="-5 -10 81 81"
   id="svg2"
   sodipodi:docname="1.svg"
   width="81"
   height="81"
   inkscape:version="1.3.2 (091e20ef0f, 2023-11-25)"
   xmlns:inkscape="http://www.inkscape.org/namespaces/inkscape"
   xmlns:sodipodi="http://sodipodi.sourceforge.net/DTD/sodipodi-0.dtd"
   xmlns="http://www.w3.org/2000/svg"
   xmlns:svg="http://www.w3.org/2000/svg">
  <defs
     id="defs2" />
  <sodipodi:namedview
     id="namedview2"
     pagecolor="#ffffff"
     bordercolor="#000000"
     borderopacity="0.25"
     inkscape:showpageshadow="2"
     inkscape:pageopacity="0.0"
     inkscape:pagecheckerboard="0"
     inkscape:deskcolor="#d1d1d1"
     inkscape:zoom="5.9111111"
     inkscape:cx="57.518797"
     inkscape:cy="47.199248"
     inkscape:window-width="1920"
     inkscape:window-height="1002"
     inkscape:window-x="0"
     inkscape:window-y="0"
     inkscape:window-maximized="1"
     inkscape:current-layer="svg2" />
  <path
     d="M 54.949562,-9.4423313 H 14.949557 c -3.308602,0 -6.0000025,2.6914 -6.0000025,6 V 64.557668 c 0,3.3086 2.6914005,6 6.0000025,6 h 40.000005 c 3.3086,0 6,-2.6914 6,-6 V -3.4423313 c 0,-3.3086 -2.6914,-6 -6,-6 z m 2,39.9999993 H 15.777558 l 11.172004,-11.172 4.5898,4.5898 c 0.78125,0.78125 2.0508,0.78125 2.8281,0 l 10.59,-10.59 12,12 v 5.1719 z M 12.949556,-3.4423313 c 0,-1.1016 0.89844,-2 2.000001,-2 h 40.000005 c 1.1016,0 2,0.89844 2,2 v 1.9999999 H 12.949556 Z m 44.000006,6 V 19.729668 l -10.59,-10.5899993 c -0.78125,-0.78125 -2.0508,-0.78125 -2.8281,0 l -10.59,10.5899993 -4.5898,-4.5898 c -0.78125,-0.78125 -2.0508,-0.78125 -2.8281,0 l -12.590006,12.59 V 2.5578687 Z m 0,61.9999993 c 0,1.1016 -0.89844,2 -2,2 H 14.949557 c -1.101601,0 -2.000001,-0.89844 -2.000001,-2 v -30 h 44.000006 z m -38.000003,-54 c 0,-1.1015993 0.898441,-1.9999993 2.000002,-1.9999993 1.10156,0 2.000001,0.89844 2.000001,1.9999993 0,1.10156 -0.898441,2 -2.000001,2 -1.101561,0 -2.000002,-0.89844 -2.000002,-2 z m 0,42 h 8.000003 c 1.1016,0 2,-0.89844 2,-2 v -8 c 0,-1.1016 -0.89844,-2 -2,-2 h -8.000003 c -1.1016,0 -2.000001,0.89844 -2.000001,2 v 8 c 0,1.1016 0.898441,2 2.000001,2 z m 2.000002,-8 h 4.000001 v 4 h -4.000001 z m 12.000001,6 c 0,-1.1016 0.89844,-2 2,-2 h 16 c 1.1016,0 2,0.89844 2,2 0,1.10156 -0.89844,2 -2,2 h -16 c -1.1016,0 -2,-0.89844 -2,-2 z m 0,-8 c 0,-1.1016 0.89844,-2 2,-2 h 16 c 1.1016,0 2,0.89844 2,2 0,1.10156 -0.89844,2 -2,2 h -16 c -1.1016,0 -2,-0.89844 -2,-2 z m -16.000004,16 c 0,-1.1016 0.898441,-2 2.000001,-2 h 32.000003 c 1.1016,0 2,0.89844 2,2 0,1.10156 -0.89844,2 -2,2 H 18.949559 c -1.1016,0 -2.000001,-0.89844 -2.000001,-2 z"
     id="path1" />
</svg>
