<?xml version="1.0" encoding="UTF-8" standalone="no"?>
<svg
   version="1.1"
   x="0px"
   y="0px"
   viewBox="0 0 62 65"
   enable-background="new 0 0 100 100"
   xml:space="preserve"
   id="svg7"
   sodipodi:docname="2.svg"
   width="62"
   height="65"
   inkscape:version="1.3.2 (091e20ef0f, 2023-11-25)"
   xmlns:inkscape="http://www.inkscape.org/namespaces/inkscape"
   xmlns:sodipodi="http://sodipodi.sourceforge.net/DTD/sodipodi-0.dtd"
   xmlns="http://www.w3.org/2000/svg"
   xmlns:svg="http://www.w3.org/2000/svg"><defs
     id="defs7" /><sodipodi:namedview
     id="namedview7"
     pagecolor="#ffffff"
     bordercolor="#000000"
     borderopacity="0.25"
     inkscape:showpageshadow="2"
     inkscape:pageopacity="0.0"
     inkscape:pagecheckerboard="0"
     inkscape:deskcolor="#d1d1d1"
     inkscape:zoom="6.384"
     inkscape:cx="49.968672"
     inkscape:cy="57.800752"
     inkscape:window-width="1920"
     inkscape:window-height="1002"
     inkscape:window-x="0"
     inkscape:window-y="0"
     inkscape:window-maximized="1"
     inkscape:current-layer="svg7" /><g
     id="g6"
     transform="translate(-18.984229,-17.844906)"><g
       id="g5"><path
         d="m 79.844,69.51 c -1.891,-5.272 -4.262,-8.549 -5.831,-10.717 -0.734,-1.016 -1.648,-2.278 -1.579,-2.643 0,-0.003 0.06,-0.266 0.893,-0.795 1.648,-1.045 2.365,-3.118 2.298,-4.99 1.704,-2.824 2.538,-6.202 2.136,-9.726 -0.891,-7.831 -7.5,-13.737 -15.375,-13.737 -0.585,0 -1.179,0.034 -1.766,0.101 -8.485,0.97 -14.601,8.66 -13.631,17.144 0.327,2.871 1.427,5.479 3.071,7.637 -3.161,0.597 -8.945,1.12 -13.362,-1.727 -3.334,-2.149 -5.352,-5.915 -6.021,-11.175 H 33.7 c 1.878,0 3.879,-1.454 4.555,-3.312 l 4.902,-13.469 c 0.375,-1.027 0.285,-2.051 -0.245,-2.808 -0.5,-0.714 -1.35,-1.123 -2.333,-1.123 h -4.632 c -1.878,0 -3.878,1.454 -4.555,3.311 l -1.67,4.589 c -0.877,-0.204 -1.826,-0.26 -2.808,-0.091 -5.655,0.963 -7.081,6.086 -7.481,13.482 -0.271,5.01 0.756,11.403 1.905,14.691 2.503,7.168 8.623,14.357 18.286,14.357 1.396,0 2.873,-0.162 4.417,-0.485 -0.029,0.251 -0.061,0.505 -0.089,0.751 -0.346,3.011 -0.704,6.123 -2.96,11.604 -0.299,0.727 0.047,1.56 0.775,1.858 0.177,0.073 0.361,0.108 0.542,0.108 0.56,0 1.091,-0.333 1.317,-0.883 2.407,-5.847 2.805,-9.309 3.156,-12.363 0.107,-0.931 0.208,-1.811 0.36,-2.731 0.002,-0.011 0,-0.021 0.002,-0.032 0.008,-0.054 0.009,-0.107 0.01,-0.162 10e-4,-0.042 0.004,-0.084 10e-4,-0.126 -0.002,-0.043 -0.011,-0.086 -0.018,-0.13 -0.008,-0.052 -0.016,-0.104 -0.03,-0.154 C 47.104,65.753 47.104,65.742 47.101,65.731 47.093,65.703 47.078,65.678 47.068,65.652 47.049,65.601 47.03,65.55 47.006,65.503 46.987,65.464 46.964,65.429 46.942,65.392 46.916,65.351 46.89,65.31 46.86,65.271 46.833,65.236 46.803,65.204 46.773,65.17 c -0.032,-0.034 -0.064,-0.067 -0.1,-0.099 -0.034,-0.03 -0.07,-0.057 -0.106,-0.083 -0.037,-0.027 -0.074,-0.054 -0.114,-0.077 -0.042,-0.024 -0.086,-0.045 -0.131,-0.065 -0.038,-0.017 -0.075,-0.034 -0.114,-0.049 -0.055,-0.019 -0.111,-0.032 -0.168,-0.045 -0.024,-0.006 -0.047,-0.016 -0.072,-0.02 -0.01,-0.002 -0.019,0 -0.028,-0.002 -0.066,-0.01 -0.134,-0.011 -0.201,-0.011 -0.026,0 -0.051,-0.003 -0.077,-10e-4 -0.062,0.003 -0.124,0.014 -0.186,0.026 -0.033,0.006 -0.066,0.011 -0.099,0.02 -0.016,0.004 -0.032,0.004 -0.047,0.009 -11.531,3.434 -18.564,-3.72 -21.303,-11.561 -1.035,-2.961 -1.998,-9.002 -1.75,-13.598 0.453,-8.37 2.293,-10.349 5.117,-10.83 1.861,-0.315 3.353,0.561 3.58,1.581 0.271,1.22 -1.285,2.952 -5.372,4.073 -0.759,0.208 -1.205,0.991 -0.997,1.75 0.208,0.758 0.991,1.206 1.75,0.996 0.03,-0.008 0.056,-0.018 0.086,-0.026 0.106,0.292 0.248,0.566 0.45,0.801 0.246,0.284 0.553,0.502 0.902,0.657 -0.005,0.083 -0.006,0.167 0.003,0.253 0.726,6.337 3.206,10.909 7.372,13.588 3.197,2.057 6.87,2.656 10.069,2.656 3.125,0 5.79,-0.571 7.119,-0.918 2.709,2.302 6.204,3.686 10.001,3.686 0.397,0 0.798,-0.037 1.199,-0.068 0.359,3.999 1.479,9.094 2.919,15.601 0.374,2.353 2.313,6.803 6.975,6.804 0,0 10e-4,0 10e-4,0 0.337,0 0.687,-0.023 1.038,-0.071 3,-0.399 4.475,-1.871 5.184,-3.035 1.194,-1.958 1.252,-4.587 0.171,-7.602 z M 33.755,29.75 c -0.289,-1.3 -1.156,-2.354 -2.338,-3.035 l 1.68,-4.613 c 0.418,-1.148 1.724,-2.118 2.852,-2.118 h 4.632 c 0.275,0 0.646,0.061 0.849,0.35 0.186,0.266 0.195,0.684 0.026,1.148 l -4.902,13.47 C 36.136,36.099 34.83,37.07 33.702,37.07 H 29.07 c -0.251,0 -0.595,-0.051 -0.806,-0.295 -0.047,-0.054 -0.08,-0.113 -0.107,-0.175 4.798,-1.807 6.089,-4.642 5.598,-6.85 z m 40.358,47.575 c -0.23,0.03 -0.45,0.046 -0.661,0.046 v 0 c -3.391,-10e-4 -4.134,-4.229 -4.179,-4.487 -3.73,-16.863 -4.569,-21.82 0.757,-23.96 0.504,-0.203 0.952,-0.306 1.332,-0.306 0.274,0 1,0 1.319,1.098 0.344,1.184 -0.075,2.726 -0.878,3.235 -0.809,0.513 -1.913,1.347 -2.165,2.662 -0.302,1.574 0.692,2.947 2.068,4.849 1.562,2.16 3.703,5.117 5.457,10.009 0.77,2.147 0.798,3.979 0.079,5.161 -0.562,0.922 -1.614,1.491 -3.129,1.693 z M 49.97,43.807 c -0.781,-6.841 4.149,-13.041 10.991,-13.823 0.473,-0.054 0.953,-0.081 1.426,-0.081 6.348,0 11.677,4.762 12.395,11.077 0.231,2.03 -0.05,3.999 -0.725,5.791 -1.229,-1.055 -3.048,-1.311 -5.09,-0.489 -3.891,1.563 -5.425,4.226 -5.535,8.541 -0.358,0.03 -0.717,0.061 -1.073,0.061 C 56.014,54.883 50.688,50.121 49.97,43.807 Z"
         id="path1" /><path
         d="m 59.991,45.515 c -1.423,-0.152 -1.888,-0.378 -3.429,-1.126 l -0.554,-0.268 c -0.744,-0.357 -1.643,-0.045 -2.002,0.701 -0.359,0.746 -0.045,1.643 0.701,2.002 l 0.545,0.264 c 1.648,0.8 2.476,1.202 4.42,1.409 0.054,0.006 0.108,0.009 0.161,0.009 0.757,0 1.407,-0.571 1.49,-1.341 0.088,-0.823 -0.509,-1.562 -1.332,-1.65 z"
         id="path2" /><path
         d="m 35.015,28.003 c 1.041,0 2.19,-0.843 2.569,-1.884 0.379,-1.041 -0.157,-1.884 -1.198,-1.884 -1.041,0 -2.19,0.843 -2.569,1.884 -0.379,1.041 0.157,1.884 1.198,1.884 z"
         id="path3" /><path
         d="m 34.602,22.169 c 0.36,0 0.758,-0.292 0.89,-0.652 0.132,-0.36 -0.054,-0.652 -0.415,-0.652 -0.361,0 -0.759,0.292 -0.89,0.652 -0.131,0.36 0.055,0.652 0.415,0.652 z"
         id="path4" /><path
         d="m 43.372,29.354 c 0.011,0.014 1.141,1.45 1.324,3.25 0.042,0.408 0.354,0.736 0.76,0.798 0.045,0.007 0.091,0.011 0.136,0.011 0.356,0 0.684,-0.212 0.827,-0.547 l 1.812,-4.244 c 0.131,-0.307 0.082,-0.661 -0.128,-0.92 -0.011,-0.015 -1.141,-1.451 -1.327,-3.253 -0.042,-0.408 -0.354,-0.735 -0.76,-0.797 -0.408,-0.06 -0.801,0.158 -0.962,0.536 l -1.811,4.245 c -0.131,0.307 -0.082,0.661 0.129,0.921 z m 2.351,-2.149 c 0.23,0.491 0.47,0.892 0.655,1.173 l -0.627,1.47 c -0.229,-0.491 -0.469,-0.892 -0.654,-1.172 z"
         id="path5" /></g></g></svg>
