<svg width="62" height="61" viewBox="0 0 62 61" fill="none" xmlns="http://www.w3.org/2000/svg">
<circle cx="30.625" cy="30.5" r="30.5" fill="url(#paint0_linear)"/>
<g clip-path="url(#clip0)">
<path d="M35.9201 19.9097H25.3299C22.4054 19.9097 20.0347 22.2804 20.0347 25.2048V35.7951C20.0347 38.7195 22.4054 41.0902 25.3299 41.0902H35.9201C38.8446 41.0902 41.2153 38.7195 41.2153 35.7951V25.2048C41.2153 22.2804 38.8446 19.9097 35.9201 19.9097Z" stroke="#000077" stroke-width="2" stroke-linecap="round" stroke-linejoin="round"/>
<path d="M34.8611 29.8325C34.9918 30.7139 34.8413 31.614 34.4309 32.4049C34.0205 33.1958 33.3712 33.8371 32.5753 34.2377C31.7794 34.6383 30.8775 34.7778 29.9978 34.6362C29.1181 34.4946 28.3055 34.0793 27.6754 33.4493C27.0454 32.8192 26.6301 32.0066 26.4885 31.1269C26.3469 30.2472 26.4864 29.3453 26.887 28.5494C27.2876 27.7535 27.9289 27.1042 28.7198 26.6938C29.5107 26.2834 30.4108 26.1329 31.2922 26.2636C32.1912 26.3969 33.0235 26.8158 33.6662 27.4585C34.3089 28.1012 34.7278 28.9335 34.8611 29.8325Z" stroke="#000077" stroke-width="2" stroke-linecap="round" stroke-linejoin="round"/>
</g>
<defs>
<linearGradient id="paint0_linear" x1="37.4689" y1="39.65" x2="-17.1777" y2="12.0739" gradientUnits="userSpaceOnUse">
<stop stop-color="#FF2D87"/>
<stop offset="1" stop-color="#FF938F"/>
</linearGradient>
<clipPath id="clip0">
<rect x="17.9167" y="17.7915" width="25.4167" height="25.4167" fill="white"/>
</clipPath>
</defs>
</svg>
