<svg width="51" height="50" viewBox="0 0 51 50" fill="none" xmlns="http://www.w3.org/2000/svg">
<path fill-rule="evenodd" clip-rule="evenodd" d="M34.2423 41.5394L46.4269 23.2625C46.9056 22.5445 46.7116 21.5744 45.9935 21.0957C45.7369 20.9246 45.4353 20.8333 45.1268 20.8333H35.5464V9.32721C35.5464 8.46426 34.8468 7.76471 33.9839 7.76471C33.4615 7.76471 32.9736 8.0258 32.6838 8.46049L20.4992 26.7374C20.0205 27.4554 20.2145 28.4255 20.9325 28.9042C21.1892 29.0753 21.4908 29.1666 21.7993 29.1666H31.3797V40.6727C31.3797 41.5356 32.0793 42.2352 32.9422 42.2352C33.4646 42.2352 33.9525 41.9741 34.2423 41.5394Z" fill="black"/>
<path opacity="0.3" fill-rule="evenodd" clip-rule="evenodd" d="M9.50471 10.4167H19.9214C21.6473 10.4167 23.0464 11.8158 23.0464 13.5417C23.0464 15.2676 21.6473 16.6667 19.9214 16.6667H9.50471C7.77882 16.6667 6.37971 15.2676 6.37971 13.5417C6.37971 11.8158 7.77882 10.4167 9.50471 10.4167ZM9.50471 35.4167H19.9214C21.6473 35.4167 23.0464 36.8158 23.0464 38.5417C23.0464 40.2676 21.6473 41.6667 19.9214 41.6667H9.50471C7.77882 41.6667 6.37971 40.2676 6.37971 38.5417C6.37971 36.8158 7.77882 35.4167 9.50471 35.4167ZM5.33804 22.9167H13.6714C15.3973 22.9167 16.7964 24.3158 16.7964 26.0417C16.7964 27.7676 15.3973 29.1667 13.6714 29.1667H5.33804C3.61215 29.1667 2.21304 27.7676 2.21304 26.0417C2.21304 24.3158 3.61215 22.9167 5.33804 22.9167Z" fill="black"/>
</svg>
