<svg width="51" height="50" viewBox="0 0 51 50" fill="none" xmlns="http://www.w3.org/2000/svg">
<path opacity="0.3" d="M42.838 29.1667C44.5639 29.1667 45.963 27.7675 45.963 26.0417C45.963 24.3158 44.5639 22.9167 42.838 22.9167C41.1122 22.9167 39.713 24.3158 39.713 26.0417C39.713 27.7675 41.1122 29.1667 42.838 29.1667Z" fill="black"/>
<path opacity="0.3" d="M39.3412 2.18478L7.14366 10.8121C6.03227 11.1099 5.37273 12.2522 5.67052 13.3636L8.36656 23.4254C8.66435 24.5367 9.80672 25.1963 10.9181 24.8985L43.1156 16.2712C44.227 15.9734 44.8866 14.831 44.5888 13.7196L41.8927 3.65792C41.5949 2.54653 40.4526 1.88699 39.3412 2.18478Z" fill="black"/>
<path fill-rule="evenodd" clip-rule="evenodd" d="M45.963 19.4517C45.0159 19.0018 43.9564 18.75 42.838 18.75C38.8109 18.75 35.5464 22.0146 35.5464 26.0417C35.5464 30.0687 38.8109 33.3333 42.838 33.3333C43.9564 33.3333 45.0159 33.0816 45.963 32.6316V37.5C45.963 39.8012 44.0975 41.6667 41.7964 41.6667H8.46302C6.16184 41.6667 4.29636 39.8012 4.29636 37.5V12.5C4.29636 10.1988 6.16184 8.33334 8.46302 8.33334H41.7964C44.0975 8.33334 45.963 10.1988 45.963 12.5V19.4517Z" fill="black"/>
</svg>
