<svg width="61" height="61" viewBox="0 0 61 61" fill="none" xmlns="http://www.w3.org/2000/svg">
<circle cx="30.5" cy="30.5" r="30.5" fill="url(#paint0_linear)"/>
<path d="M41.6198 24.1456L39.237 24.5427L40.8256 22.5571L38.0456 23.3513C34.4714 19.38 28.9115 23.7485 30.5 27.3227C24.1459 27.3227 20.9688 22.5571 20.9688 22.5571C20.9688 22.5571 18.586 26.1313 22.5573 28.9112L20.1745 28.1169C20.1745 30.4998 21.7631 32.0883 24.543 32.8826H21.7631C23.3516 36.0597 26.1316 36.0597 26.1316 36.0597C26.1316 36.0597 23.7487 38.0453 19.3802 38.0453C32.4857 44.3995 40.4284 32.4854 39.237 26.1313L41.6198 24.1456Z" fill="#000077"/>
<defs>
<linearGradient id="paint0_linear" x1="37.3439" y1="39.65" x2="-17.3027" y2="12.0739" gradientUnits="userSpaceOnUse">
<stop stop-color="#FF2D87"/>
<stop offset="1" stop-color="#FF938F"/>
</linearGradient>
</defs>
</svg>
