<svg width="30" height="30" viewBox="0 0 30 30" fill="none" xmlns="http://www.w3.org/2000/svg">
<path opacity="0.3" d="M6.25 13.75C5.55964 13.75 5 14.3096 5 15C5 15.6904 5.55964 16.25 6.25 16.25H15C15.6904 16.25 16.25 15.6904 16.25 15C16.25 14.3096 15.6904 13.75 15 13.75H6.25Z" fill="white"/>
<path d="M14.1161 21.6161C13.628 22.1043 13.628 22.8957 14.1161 23.3839C14.6043 23.872 15.3957 23.872 15.8839 23.3839L23.3839 15.8839C23.8571 15.4107 23.8737 14.6487 23.4214 14.1553L16.5464 6.65535C16.08 6.14645 15.2892 6.11207 14.7803 6.57856C14.2714 7.04505 14.2371 7.83576 14.7036 8.34466L20.7698 14.9624L14.1161 21.6161Z" fill="white"/>
</svg>
